<?xml version="1.0" encoding="utf-8"?>
<!-- Generator: Adobe Illustrator 27.5.0, SVG Export Plug-In . SVG Version: 6.00 Build 0)  -->
<svg version="1.1" id="Layer_1" xmlns="http://www.w3.org/2000/svg" xmlns:xlink="http://www.w3.org/1999/xlink" x="0px" y="0px"
	 viewBox="0 0 284.278 437.966" style="enable-background:new 0 0 284.278 437.966;" xml:space="preserve">
<g>
	<g>
		<path style="fill:#AAACAE;" d="M207.016,273.138c0,0,2.056-2.261,5.909-6.502c0.964-1.06,2.04-2.243,3.224-3.546
			c1.133-1.347,2.369-2.818,3.706-4.407c1.335-1.59,2.768-3.3,4.298-5.124c1.519-1.832,3.014-3.872,4.661-5.976
			c0.815-1.058,1.653-2.145,2.512-3.259c0.429-0.557,0.864-1.121,1.303-1.691c0.415-0.589,0.835-1.185,1.26-1.787
			c1.7-2.412,3.478-4.934,5.333-7.565c3.529-5.378,7.336-11.206,10.949-17.699c3.691-6.445,7.224-13.519,10.589-21.128l0.649-1.425
			l0.58-1.464c0.387-0.979,0.776-1.964,1.168-2.955c0.764-1.988,1.62-3.974,2.337-6.033c1.346-4.147,2.931-8.331,4.032-12.753
			c0.302-1.097,0.607-2.201,0.912-3.309l0.46-1.668c0.148-0.558,0.251-1.128,0.379-1.695c0.49-2.27,0.983-4.561,1.483-6.875
			c0.455-2.321,0.753-4.691,1.143-7.067c0.432-2.373,0.609-4.795,0.839-7.231c0.897-9.741,0.851-19.917-0.648-30.181
			c-1.492-10.252-4.457-20.588-9.193-30.348c-4.719-9.755-11.222-18.907-19.344-26.699c-8.203-7.702-17.986-13.967-28.706-18.399
			c-5.371-2.169-10.936-4.043-16.675-5.3c-5.731-1.271-11.592-2.073-17.499-2.325c-11.814-0.469-23.802,1.327-35.05,5.41
			c-11.246,4.073-21.745,10.359-30.701,18.367c-8.924,8.01-16.452,17.716-21.255,28.588c-2.393,5.422-4.11,11.133-4.761,16.925
			c-0.662,5.776-0.239,11.646,1.616,17.004c1.838,5.329,5.083,10.228,9.387,13.625c4.303,3.427,9.762,5.12,15.275,5.204
			c5.534,0.079,11.087-1.295,16.212-3.522c5.136-2.236,9.882-5.324,14.098-8.938c8.435-7.234,14.79-16.671,17.872-26.845
			c1.533-5.084,2.258-10.34,2.057-15.508c-0.078-2.584-0.379-5.146-0.904-7.646c-0.506-2.505-1.195-4.96-2.097-7.324
			c-3.535-9.518-9.754-17.627-16.777-24.275c-7.029-6.669-14.963-11.855-23.082-15.776c-8.129-3.927-16.434-6.624-24.484-8.511
			c-8.058-1.884-15.874-2.967-23.251-3.583c-14.771-1.225-27.766-0.601-38.379,0.371c-10.624,0.996-18.905,2.411-24.505,3.497
			c-2.803,0.539-4.933,1.02-6.362,1.346c-1.406,0.34-2.132,0.515-2.132,0.515l-1.189-4.523c0,0,0.771-0.187,2.262-0.547
			c1.477-0.337,3.663-0.831,6.524-1.381c5.721-1.11,14.145-2.549,24.967-3.564C48.83,6.651,62.071,6.01,77.218,7.264
			c7.564,0.632,15.602,1.743,23.931,3.69c8.321,1.951,16.949,4.747,25.452,8.855c8.49,4.099,16.849,9.554,24.274,16.599
			c0.979,0.826,1.809,1.813,2.708,2.736c0.886,0.937,1.774,1.878,2.667,2.824c0.868,0.969,1.686,1.995,2.529,3.002
			c0.788,1.056,1.622,2.082,2.378,3.176c3.053,4.345,5.761,9.099,7.653,14.297c0.982,2.58,1.742,5.272,2.297,8.023
			c0.575,2.747,0.907,5.568,0.995,8.413c0.221,5.69-0.579,11.472-2.254,17.023c-3.377,11.12-10.23,21.251-19.303,29.039
			c-4.541,3.893-9.658,7.231-15.279,9.679c-5.61,2.434-11.776,3.997-18.159,3.909c-6.342-0.081-12.937-2.095-18.075-6.199
			c-5.148-4.079-8.81-9.683-10.927-15.79c-2.118-6.132-2.564-12.714-1.839-19.047c0.717-6.354,2.577-12.501,5.13-18.288
			c2.557-5.793,5.829-11.246,9.626-16.285c3.777-5.06,8.105-9.688,12.792-13.901c9.4-8.403,20.408-14.996,32.224-19.278
			c11.815-4.289,24.43-6.179,36.832-5.686c6.201,0.264,12.343,1.106,18.335,2.434c5.996,1.316,11.804,3.265,17.431,5.539
			c11.227,4.64,21.516,11.224,30.144,19.331c8.548,8.195,15.388,17.826,20.336,28.055c4.967,10.234,8.059,21.037,9.61,31.706
			c1.56,10.681,1.605,21.225,0.678,31.286c-0.238,2.517-0.424,5.02-0.867,7.464c-0.401,2.449-0.711,4.894-1.178,7.283
			c-0.513,2.381-1.022,4.738-1.526,7.073c-0.132,0.583-0.239,1.17-0.389,1.744l-0.472,1.713c-0.314,1.139-0.626,2.271-0.937,3.399
			c-1.135,4.543-2.753,8.828-4.137,13.08c-0.735,2.111-1.608,4.141-2.391,6.177c-0.401,1.014-0.799,2.022-1.195,3.025l-0.595,1.498
			l-0.662,1.456c-3.438,7.778-7.047,14.999-10.807,21.567c-3.685,6.618-7.557,12.549-11.149,18.019
			c-1.884,2.674-3.693,5.238-5.42,7.69c-0.432,0.612-0.859,1.218-1.281,1.816c-0.447,0.58-0.888,1.153-1.323,1.718
			c-0.873,1.131-1.722,2.234-2.55,3.308c-1.671,2.136-3.191,4.209-4.731,6.067c-1.552,1.85-3.006,3.584-4.359,5.198
			c-1.355,1.611-2.61,3.102-3.759,4.468c-1.2,1.321-2.29,2.52-3.266,3.594c-3.906,4.296-5.99,6.587-5.99,6.587L207.016,273.138z"/>
		<path style="fill:#535557;" d="M206.934,273.061c0,0,2.055-2.261,5.907-6.5c0.963-1.059,2.04-2.243,3.223-3.545
			c1.132-1.347,2.368-2.817,3.704-4.405c1.334-1.59,2.768-3.299,4.297-5.123c1.518-1.831,3.013-3.871,4.659-5.974
			c0.816-1.057,1.652-2.143,2.511-3.257c0.429-0.556,0.864-1.12,1.303-1.691c0.415-0.588,0.835-1.184,1.259-1.786
			c1.699-2.41,3.477-4.932,5.331-7.562c3.527-5.375,7.333-11.201,10.945-17.69c3.69-6.442,7.22-13.514,10.584-21.117l0.649-1.424
			l0.58-1.463c0.387-0.979,0.776-1.964,1.167-2.954c0.763-1.988,1.619-3.972,2.335-6.03c1.345-4.145,2.929-8.327,4.03-12.745
			c0.302-1.097,0.606-2.2,0.912-3.308l0.459-1.666c0.148-0.558,0.25-1.128,0.378-1.694c0.49-2.268,0.983-4.558,1.482-6.87
			c0.454-2.319,0.752-4.687,1.142-7.062c0.431-2.371,0.608-4.791,0.838-7.226c0.897-9.733,0.851-19.9-0.647-30.154
			c-1.49-10.243-4.452-20.567-9.183-30.314c-4.715-9.744-11.209-18.885-19.321-26.666c-8.193-7.693-17.963-13.949-28.671-18.376
			c-5.364-2.167-10.925-4.039-16.657-5.295c-5.724-1.269-11.579-2.07-17.479-2.322c-11.8-0.468-23.773,1.326-35.007,5.403
			c-11.233,4.069-21.719,10.348-30.665,18.346c-8.913,8.001-16.431,17.695-21.226,28.549c-2.389,5.414-4.103,11.115-4.752,16.893
			c-0.661,5.764-0.237,11.615,1.61,16.955c1.831,5.31,5.066,10.192,9.35,13.573c4.283,3.411,9.713,5.095,15.207,5.18
			c5.514,0.078,11.052-1.291,16.164-3.513c5.125-2.23,9.862-5.311,14.071-8.92c8.419-7.221,14.762-16.641,17.837-26.792
			c1.53-5.072,2.254-10.316,2.053-15.471c-0.078-2.577-0.378-5.133-0.902-7.628c-0.505-2.498-1.193-4.947-2.094-7.307
			c-3.527-9.496-9.733-17.593-16.748-24.232c-7.02-6.66-14.943-11.84-23.054-15.756c-8.12-3.924-16.417-6.619-24.461-8.504
			c-8.052-1.882-15.863-2.964-23.235-3.58c-14.762-1.224-27.751-0.601-38.36,0.371c-10.619,0.996-18.897,2.409-24.494,3.496
			c-2.802,0.539-4.931,1.02-6.358,1.346c-1.404,0.339-2.128,0.514-2.128,0.514l-0.326-1.239c0,0,0.737-0.178,2.164-0.524
			c1.441-0.329,3.585-0.813,6.403-1.354c5.63-1.093,13.947-2.513,24.621-3.514c10.662-0.976,23.719-1.604,38.584-0.372
			c7.424,0.62,15.295,1.71,23.421,3.609c8.118,1.903,16.504,4.624,24.726,8.597c8.213,3.965,16.251,9.219,23.38,15.981
			c7.112,6.735,13.447,14.977,17.065,24.714c0.923,2.419,1.629,4.933,2.147,7.499c0.538,2.562,0.847,5.189,0.926,7.838
			c0.206,5.298-0.537,10.686-2.106,15.887c-3.155,10.41-9.635,20.021-18.23,27.393c-4.297,3.685-9.135,6.835-14.393,9.124
			c-5.246,2.278-10.952,3.699-16.698,3.618c-5.721-0.083-11.462-1.857-15.974-5.452c-4.515-3.568-7.865-8.643-9.772-14.167
			c-1.921-5.551-2.35-11.598-1.672-17.514c0.668-5.932,2.421-11.752,4.853-17.266c2.436-5.52,5.57-10.75,9.221-15.596
			c3.631-4.864,7.804-9.327,12.324-13.39c9.066-8.107,19.693-14.47,31.081-18.596c11.39-4.133,23.535-5.953,35.495-5.478
			c5.981,0.255,11.912,1.067,17.708,2.352c5.803,1.271,11.429,3.164,16.864,5.36c10.846,4.484,20.755,10.828,29.065,18.632
			c8.229,7.892,14.816,17.164,19.592,27.038c4.794,9.878,7.79,20.33,9.297,30.687c1.514,10.369,1.56,20.636,0.656,30.456
			c-0.232,2.457-0.412,4.899-0.846,7.29c-0.393,2.395-0.694,4.783-1.152,7.121c-0.503,2.329-1.001,4.638-1.494,6.924
			c-0.129,0.57-0.233,1.145-0.382,1.707l-0.463,1.68c-0.308,1.116-0.614,2.226-0.918,3.331c-1.11,4.452-2.703,8.661-4.058,12.835
			c-0.722,2.073-1.582,4.068-2.35,6.069c-0.394,0.997-0.786,1.988-1.176,2.972l-0.584,1.472l-0.652,1.432
			c-3.384,7.651-6.936,14.762-10.643,21.239c-3.632,6.523-7.455,12.377-11,17.778c-1.862,2.641-3.648,5.174-5.355,7.595
			c-0.427,0.605-0.849,1.204-1.266,1.795c-0.441,0.573-0.878,1.14-1.308,1.699c-0.863,1.118-1.703,2.208-2.522,3.27
			c-1.652,2.112-3.154,4.16-4.678,6c-1.536,1.83-2.974,3.546-4.314,5.142c-1.341,1.594-2.582,3.07-3.719,4.422
			c-1.188,1.307-2.268,2.495-3.235,3.558c-3.867,4.254-5.929,6.524-5.929,6.524L206.934,273.061z"/>
		<polygon style="fill:#717375;" points="11.845,15.928 11.163,16.07 10.319,12.038 11.016,11.891 		"/>
		<polygon style="fill:#717375;" points="20.904,14.265 20.215,14.381 19.537,10.317 20.237,10.199 		"/>
		<polygon style="fill:#717375;" points="30.025,12.936 29.333,13.03 28.803,8.944 29.507,8.85 		"/>
		<polygon style="fill:#717375;" points="39.19,11.944 38.494,12.012 38.112,7.91 38.819,7.841 		"/>
		<polygon style="fill:#717375;" points="48.382,11.295 47.685,11.334 47.457,7.22 48.166,7.181 		"/>
		<polygon style="fill:#717375;" points="57.587,10.994 56.889,10.999 56.824,6.879 57.535,6.874 		"/>
		<polygon style="fill:#717375;" points="66.79,11.069 66.093,11.055 66.205,6.936 66.916,6.951 		"/>
		<polygon style="fill:#717375;" points="75.971,11.576 75.277,11.519 75.582,7.41 76.292,7.468 		"/>
		<polygon style="fill:#717375;" points="85.109,12.511 84.418,12.43 84.934,8.342 85.642,8.425 		"/>
		<polygon style="fill:#717375;" points="94.165,13.97 93.483,13.837 94.233,9.785 94.934,9.923 		"/>
		<polygon style="fill:#717375;" points="103.107,15.956 102.432,15.792 103.44,11.797 104.135,11.966 		"/>
		<polygon style="fill:#717375;" points="111.873,18.554 111.219,18.324 112.509,14.412 113.186,14.649 		"/>
		<polygon style="fill:#717375;" points="120.399,21.808 119.76,21.543 121.359,17.745 122.022,18.021 		"/>
		<polygon style="fill:#717375;" points="128.614,25.741 128.014,25.399 129.941,21.757 130.566,22.113 		"/>
		<polygon style="fill:#717375;" points="136.387,30.455 135.814,30.073 138.083,26.635 138.683,27.034 		"/>
		<polygon style="fill:#717375;" points="143.686,35.852 143.142,35.431 145.754,32.244 146.325,32.687 		"/>
		<polygon style="fill:#717375;" points="150.293,42.064 149.821,41.564 152.76,38.678 153.257,39.202 		"/>
		<polygon style="fill:#717375;" points="156.235,48.888 155.82,48.343 159.075,45.816 159.514,46.393 		"/>
		<polygon style="fill:#717375;" points="161.18,56.404 160.849,55.808 164.424,53.76 164.778,54.398 		"/>
		<polygon style="fill:#717375;" points="164.898,64.544 164.663,63.907 168.524,62.468 168.777,63.156 		"/>
		<path style="fill:#717375;" d="M167.137,73.168c0,0-0.024-0.167-0.047-0.334c-0.031-0.166-0.063-0.332-0.063-0.332l4.057-0.717
			c0,0,0.034,0.18,0.067,0.361c0.026,0.182,0.053,0.364,0.053,0.364L167.137,73.168z"/>
		<polygon style="fill:#717375;" points="167.719,82.044 167.727,81.368 171.847,81.433 171.837,82.168 		"/>
		<polygon style="fill:#717375;" points="166.612,90.878 166.754,90.217 170.791,91.046 170.636,91.763 		"/>
		<polygon style="fill:#717375;" points="163.933,99.395 164.193,98.768 168.023,100.289 167.742,100.965 		"/>
		<polygon style="fill:#717375;" points="159.859,107.374 160.221,106.797 163.755,108.915 163.369,109.533 		"/>
		<polygon style="fill:#717375;" points="154.59,114.646 155.03,114.125 158.205,116.75 157.736,117.306 		"/>
		<path style="fill:#717375;" d="M148.301,121.069c0,0,0.129-0.111,0.259-0.223c0.126-0.116,0.251-0.231,0.251-0.231l2.758,3.06
			c0,0-0.133,0.123-0.267,0.246c-0.138,0.119-0.275,0.238-0.275,0.238L148.301,121.069z"/>
		<polygon style="fill:#717375;" points="141.141,126.489 141.713,126.12 143.983,129.558 143.371,129.954 		"/>
		<polygon style="fill:#717375;" points="133.249,130.696 133.873,130.433 135.545,134.198 134.87,134.484 		"/>
		<polygon style="fill:#717375;" points="124.795,133.387 125.449,133.241 126.348,137.262 125.625,137.422 		"/>
		<polygon style="fill:#717375;" points="116.074,134.083 116.732,134.12 116.599,138.238 115.849,138.197 		"/>
		<polygon style="fill:#717375;" points="107.668,132.277 108.27,132.525 106.844,136.39 106.14,136.103 		"/>
		<path style="fill:#717375;" d="M100.424,127.764c0,0,0.119,0.111,0.238,0.223c0.126,0.103,0.253,0.206,0.253,0.206l-2.678,3.132
			c0,0-0.147-0.12-0.294-0.242c-0.139-0.129-0.278-0.258-0.278-0.258L100.424,127.764z"/>
		<polygon style="fill:#717375;" points="94.995,121.03 95.333,121.599 91.833,123.773 91.45,123.13 		"/>
		<polygon style="fill:#717375;" points="91.611,112.993 91.799,113.63 87.844,114.784 87.633,114.069 		"/>
		<path style="fill:#717375;" d="M90.362,104.285c0,0,0.003,0.169,0.006,0.336c0.01,0.168,0.021,0.334,0.021,0.334l-4.116,0.185
			c0,0-0.011-0.185-0.022-0.369c-0.003-0.184-0.007-0.368-0.007-0.368L90.362,104.285z"/>
		<path style="fill:#717375;" d="M91.001,95.418c0,0-0.03,0.167-0.06,0.333c-0.033,0.167-0.05,0.334-0.05,0.334l-4.073-0.621
			c0,0,0.019-0.182,0.054-0.362c0.032-0.18,0.064-0.36,0.064-0.36L91.001,95.418z"/>
		<polygon style="fill:#717375;" points="93.18,86.722 92.974,87.372 89.052,86.109 89.273,85.416 		"/>
		<polygon style="fill:#717375;" points="96.624,78.388 96.326,79.005 92.61,77.227 92.924,76.574 		"/>
		<polygon style="fill:#717375;" points="101.082,70.511 100.709,71.088 97.227,68.885 97.619,68.279 		"/>
		<polygon style="fill:#717375;" points="106.404,63.162 105.973,63.699 102.745,61.138 103.197,60.576 		"/>
		<polygon style="fill:#717375;" points="112.454,56.382 111.975,56.878 109.02,54.006 109.521,53.488 		"/>
		<polygon style="fill:#717375;" points="119.143,50.222 118.62,50.671 115.957,47.527 116.503,47.058 		"/>
		<path style="fill:#717375;" d="M126.4,44.736c0,0-0.144,0.096-0.288,0.191c-0.14,0.1-0.28,0.201-0.28,0.201l-2.351-3.384
			c0,0,0.146-0.104,0.293-0.208c0.15-0.1,0.299-0.2,0.299-0.2L126.4,44.736z"/>
		<polygon style="fill:#717375;" points="134.143,39.965 133.538,40.297 131.521,36.705 132.152,36.358 		"/>
		<polygon style="fill:#717375;" points="142.306,35.957 141.674,36.23 140.011,32.46 140.671,32.175 		"/>
		<polygon style="fill:#717375;" points="150.816,32.758 150.161,32.974 148.875,29.06 149.559,28.835 		"/>
		<polygon style="fill:#717375;" points="159.598,30.415 158.926,30.57 158.032,26.548 158.734,26.386 		"/>
		<polygon style="fill:#717375;" points="168.569,28.961 167.885,29.043 167.394,24.953 168.109,24.866 		"/>
		<polygon style="fill:#717375;" points="177.64,28.396 176.952,28.405 176.864,24.285 177.584,24.276 		"/>
		<path style="fill:#717375;" d="M186.729,28.704c0,0-0.172-0.017-0.344-0.033c-0.171-0.012-0.344-0.024-0.344-0.024l0.312-4.108
			c0,0,0.179,0.012,0.359,0.025c0.179,0.017,0.358,0.034,0.358,0.034L186.729,28.704z"/>
		<polygon style="fill:#717375;" points="195.753,29.89 195.073,29.773 195.765,25.712 196.474,25.833 		"/>
		<polygon style="fill:#717375;" points="204.644,31.876 203.977,31.694 205.028,27.71 205.72,27.898 		"/>
		<polygon style="fill:#717375;" points="213.315,34.677 212.663,34.451 214.055,30.574 214.734,30.809 		"/>
		<polygon style="fill:#717375;" points="221.728,38.155 221.093,37.881 222.834,34.147 223.495,34.433 		"/>
		<polygon style="fill:#717375;" points="229.73,42.476 229.147,42.108 231.236,38.557 231.845,38.939 		"/>
		<polygon style="fill:#717375;" points="237.277,47.536 236.725,47.124 239.152,43.795 239.73,44.225 		"/>
		<polygon style="fill:#717375;" points="244.308,53.288 243.79,52.834 246.538,49.765 247.08,50.239 		"/>
		<path style="fill:#717375;" d="M250.75,59.692c0,0-0.114-0.13-0.236-0.251c-0.12-0.123-0.241-0.246-0.241-0.246l3.044-2.777
			c0,0,0.125,0.129,0.251,0.258c0.128,0.127,0.246,0.262,0.246,0.262L250.75,59.692z"/>
		<polygon style="fill:#717375;" points="256.434,66.781 256.036,66.217 259.342,63.758 259.758,64.346 		"/>
		<polygon style="fill:#717375;" points="261.422,74.376 261.07,73.784 264.601,71.662 264.97,72.28 		"/>
		<polygon style="fill:#717375;" points="265.687,82.407 265.38,81.789 269.099,80.015 269.418,80.659 		"/>
		<path style="fill:#717375;" d="M269.195,90.805c0.013-0.005-0.245-0.645-0.244-0.645l3.866-1.425c0,0,0.268,0.668,0.254,0.673
			L269.195,90.805z"/>
		<polygon style="fill:#717375;" points="271.863,99.518 271.699,98.846 275.676,97.768 275.846,98.465 		"/>
		<polygon style="fill:#717375;" points="273.959,109.354 273.844,108.671 277.902,107.961 278.022,108.668 		"/>
		<polygon style="fill:#717375;" points="275.126,118.408 275.057,117.719 279.159,117.328 279.231,118.042 		"/>
		<polygon style="fill:#717375;" points="275.611,127.533 275.587,126.841 279.707,126.755 279.731,127.47 		"/>
		<polygon style="fill:#717375;" points="275.445,136.681 275.466,135.988 279.582,136.188 279.559,136.902 		"/>
		<polygon style="fill:#717375;" points="274.665,145.808 274.729,145.117 278.823,145.583 278.756,146.294 		"/>
		<polygon style="fill:#717375;" points="273.307,154.875 273.414,154.189 277.471,154.903 277.361,155.608 		"/>
		<polygon style="fill:#717375;" points="271.411,163.853 271.558,163.173 275.569,164.118 275.418,164.815 		"/>
		<polygon style="fill:#717375;" points="269.017,172.72 269.202,172.048 273.157,173.206 272.966,173.893 		"/>
		<polygon style="fill:#717375;" points="266.164,181.455 266.386,180.794 270.277,182.148 270.051,182.823 		"/>
		<polygon style="fill:#717375;" points="262.889,190.046 263.146,189.398 266.969,190.934 266.708,191.596 		"/>
		<polygon style="fill:#717375;" points="259.23,198.486 259.519,197.852 263.27,199.556 262.976,200.203 		"/>
		<polygon style="fill:#717375;" points="255.219,206.771 255.54,206.151 259.216,208.01 258.89,208.642 		"/>
		<polygon style="fill:#717375;" points="250.889,214.9 251.238,214.294 254.839,216.299 254.482,216.914 		"/>
		<path style="fill:#717375;" d="M246.268,222.875c0,0,0.097-0.145,0.185-0.297c0.087-0.151,0.174-0.302,0.174-0.302l3.523,2.137
			c0,0-0.089,0.153-0.178,0.307c-0.087,0.154-0.188,0.301-0.188,0.301L246.268,222.875z"/>
		<polygon style="fill:#717375;" points="241.293,230.639 241.67,230.049 245.116,232.309 244.733,232.906 		"/>
		<polygon style="fill:#717375;" points="236.068,238.238 236.471,237.666 239.84,240.038 239.431,240.618 		"/>
		<polygon style="fill:#717375;" points="230.626,245.689 231.053,245.135 234.345,247.612 233.912,248.173 		"/>
		<polygon style="fill:#717375;" points="224.988,252.998 225.417,252.445 228.633,255.021 228.198,255.581 		"/>
		<polygon style="fill:#717375;" points="219.054,260.072 219.504,259.535 222.646,262.201 222.19,262.744 		"/>
		<polygon style="fill:#717375;" points="212.96,267.012 213.432,266.493 216.499,269.243 216.023,269.768 		"/>
		<path style="fill:#717375;" d="M208.955,274.971c0,0,2.071-2.279,5.954-6.551c0.971-1.067,2.056-2.26,3.248-3.573
			c1.142-1.358,2.389-2.84,3.736-4.442c1.345-1.604,2.791-3.328,4.333-5.166c1.532-1.847,3.042-3.906,4.701-6.027
			c0.822-1.068,1.667-2.164,2.533-3.287c0.434-0.562,0.872-1.131,1.316-1.707c0.419-0.594,0.843-1.196,1.272-1.804
			c1.715-2.434,3.51-4.981,5.382-7.636c3.565-5.431,7.409-11.318,11.063-17.881c3.731-6.515,7.306-13.673,10.714-21.379l0.656-1.443
			l0.589-1.482c0.392-0.992,0.786-1.99,1.183-2.994c0.775-2.016,1.641-4.027,2.368-6.116c1.367-4.207,2.971-8.449,4.091-12.94
			c0.307-1.114,0.616-2.235,0.927-3.361l0.466-1.693c0.15-0.567,0.256-1.147,0.385-1.723c0.497-2.307,1-4.636,1.507-6.987
			c0.462-2.361,0.767-4.773,1.163-7.191c0.438-2.414,0.62-4.881,0.855-7.364c0.914-9.924,0.869-20.309-0.666-30.811
			c-1.525-10.49-4.563-21.093-9.43-31.122c-4.85-10.026-11.545-19.451-19.911-27.473c-8.445-7.933-18.517-14.38-29.525-18.93
			c-5.518-2.23-11.221-4.146-17.107-5.437c-5.88-1.303-11.902-2.127-17.976-2.387c-12.149-0.482-24.494,1.367-36.066,5.568
			c-11.571,4.192-22.36,10.653-31.569,18.887c-4.592,4.127-8.831,8.661-12.525,13.608c-3.713,4.929-6.906,10.253-9.394,15.89
			c-2.483,5.631-4.283,11.591-4.971,17.702c-0.698,6.094-0.262,12.37,1.743,18.17c1.997,5.773,5.48,11.073,10.265,14.861
			c4.779,3.813,10.886,5.688,16.872,5.771c6.018,0.083,11.921-1.398,17.322-3.743c5.413-2.357,10.371-5.587,14.773-9.361
			c8.799-7.551,15.439-17.383,18.688-28.097c1.615-5.35,2.382-10.907,2.17-16.373c-0.083-2.732-0.402-5.441-0.956-8.083
			c-0.533-2.645-1.263-5.236-2.211-7.723c-3.725-10.019-10.21-18.434-17.437-25.279c-7.255-6.883-15.43-12.223-23.762-16.246
			c-8.342-4.031-16.831-6.783-25.036-8.707c-8.213-1.919-16.155-3.018-23.639-3.643C62.067,8.026,48.931,8.658,38.205,9.639
			c-10.737,1.008-19.1,2.436-24.769,3.535c-5.671,1.105-8.661,1.9-8.661,1.9l-0.326-1.239c0,0,0.764-0.185,2.242-0.543
			c1.47-0.335,3.647-0.827,6.499-1.375c5.702-1.106,14.104-2.542,24.895-3.553C48.866,7.378,62.07,6.74,77.158,7.99
			c7.535,0.629,15.538,1.735,23.826,3.674c8.278,1.94,16.856,4.721,25.301,8.801c8.433,4.07,16.725,9.484,24.088,16.471
			c7.324,6.94,13.939,15.5,17.755,25.76c0.97,2.547,1.718,5.202,2.266,7.914c0.567,2.709,0.894,5.49,0.98,8.293
			c0.218,5.61-0.57,11.309-2.224,16.788c-3.331,10.972-10.106,20.995-19.08,28.697c-4.492,3.851-9.55,7.149-15.096,9.565
			c-5.535,2.4-11.606,3.934-17.856,3.848c-6.214-0.08-12.631-2.045-17.64-6.044c-5.017-3.973-8.613-9.467-10.688-15.454
			c-2.077-6.01-2.52-12.482-1.804-18.728c0.707-6.266,2.545-12.345,5.073-18.076c2.532-5.737,5.775-11.143,9.541-16.142
			c3.746-5.019,8.043-9.613,12.695-13.795c9.331-8.342,20.26-14.886,31.986-19.136c11.728-4.257,24.244-6.132,36.555-5.643
			c6.154,0.262,12.254,1.097,18.205,2.417c5.956,1.306,11.726,3.244,17.314,5.502c11.147,4.607,21.358,11.142,29.919,19.185
			c8.482,8.132,15.27,17.689,20.182,27.845c4.93,10.16,8.003,20.89,9.546,31.494c1.551,10.617,1.595,21.103,0.673,31.114
			c-0.237,2.505-0.422,4.995-0.863,7.428c-0.399,2.437-0.708,4.87-1.173,7.25c-0.512,2.369-1.017,4.717-1.519,7.042
			c-0.131,0.58-0.238,1.164-0.388,1.735l-0.469,1.706c-0.313,1.134-0.624,2.262-0.933,3.384c-1.13,4.525-2.742,8.794-4.121,13.03
			c-0.732,2.103-1.603,4.126-2.382,6.154c-0.4,1.011-0.797,2.016-1.192,3.014l-0.592,1.492l-0.66,1.451
			c-3.427,7.751-7.024,14.95-10.773,21.499c-3.675,6.598-7.537,12.513-11.118,17.969c-1.88,2.668-3.683,5.226-5.407,7.67
			c-0.431,0.612-0.856,1.215-1.277,1.812c-0.446,0.579-0.887,1.15-1.321,1.714c-0.87,1.129-1.717,2.229-2.543,3.3
			c-1.667,2.131-3.183,4.198-4.72,6.053c-1.549,1.846-3,3.576-4.35,5.186c-1.353,1.608-2.604,3.096-3.75,4.459
			c-1.198,1.318-2.286,2.514-3.261,3.586c-3.898,4.287-5.976,6.574-5.976,6.574L208.955,274.971z"/>
	</g>
	<g>
		<g>
			<g>
				<path style="fill:#EBEBEC;" d="M248.152,241.739c0,0,15.107,24.805,15.979,47.896c0,0,0.308,9.738-4.578,10.166
					c-4.888,0.43-13.126-1.254-15.491-11.055c-2.431-10.07-10.4-25.865-16.82-34.552L248.152,241.739z"/>
				<path style="fill:#818386;" d="M252.663,281.749c2.999-0.033,5.688,0.969,8.022,2.862c1.005,0.815,2.369,2.135,3.37,3.599
					c0.03,0.475,0.057,0.951,0.075,1.425c0,0,0.308,9.738-4.578,10.166c-4.888,0.43-13.126-1.254-15.491-11.055
					c-0.218-0.902-0.482-1.85-0.782-2.832C245.787,283.432,249.161,281.787,252.663,281.749z"/>
				<path style="fill:#D9D9DB;" d="M251.464,268.78c-0.943-2.809-2.224-5.447-3.603-8.038c1.968-3.336,3.481-6.895,4.822-10.541
					c4.086,8.337,9.664,21.732,11.123,35.108c-3.064-2.018-6.388-3.39-9.876-4.577C253.574,276.669,252.761,272.638,251.464,268.78z
					"/>
				<path style="fill:#818386;" d="M238.361,273.487c-0.213-0.455-0.425-0.911-0.645-1.368c5.385-5.397,12.279-9.368,19.534-11.604
					c0.337,0.854,0.672,1.73,1,2.618C250.945,264.604,243.848,268.41,238.361,273.487z"/>
				<path style="opacity:0.8;fill:#D9D9DB;" d="M248.152,241.739c0,0,1.331,2.185,3.225,5.862
					c-0.572,3.976-1.912,7.827-4.131,11.183c-1.31,1.982-3.274,4.308-3.606,6.745c-0.313,2.298,6.885,19.168,6.995,26.012
					c0.034,2.11-0.032,4.241-0.147,6.357c-2.814-1.628-5.293-4.458-6.426-9.151c-2.431-10.07-10.4-25.865-16.82-34.552
					L248.152,241.739z"/>
				<path style="fill:#D9D9DB;" d="M260.168,315.767c-1.492-1.842-3.538-3.434-5.781-4.244c-2.384-0.863-5.235-1.596-7.749-0.773
					c-1.203,0.393-2.167,1.195-3.136,1.973c-0.256-8.141,0.639-22.733,0.639-22.733s3.262-8.177,11.566-5.34
					c0,0,7.52,1.699,8.129,9.037c0.414,4.987-0.775,15.712-2.994,22.965C260.618,316.333,260.385,316.034,260.168,315.767z"/>
				<path style="fill:#D9D9DB;" d="M260.168,315.767c-1.492-1.842-3.538-3.434-5.781-4.244c-2.384-0.863-5.235-1.596-7.749-0.773
					c-1.203,0.393-2.167,1.195-3.136,1.973c-0.256-8.141,0.639-22.733,0.639-22.733s3.262-8.177,11.566-5.34
					c0,0,7.52,1.699,8.129,9.037c0.414,4.987-0.775,15.712-2.994,22.965C260.618,316.333,260.385,316.034,260.168,315.767z"/>
				<path style="fill:#D9D9DB;" d="M244.141,289.99c0,0,2.037-5.092,6.979-5.843c-0.166,0.118-0.328,0.242-0.487,0.38
					c-2.212,1.927-3.218,4.285-3.33,7.178c-0.182,4.591-0.663,17.342-0.887,19.127c-1.101,0.415-2.008,1.161-2.915,1.89
					C243.246,304.582,244.141,289.99,244.141,289.99z"/>
				<path style="fill:#EBEBEC;" d="M254.387,311.523c-0.673-0.242-1.382-0.475-2.111-0.665l0.549-23.785
					c0,0,1.288-1.404,5.297,0.224c0,0,5.125,1.904,5.22,9.005c0.077,5.74-1.757,14.504-3.27,19.355
					C258.587,313.862,256.583,312.316,254.387,311.523z"/>
				<path style="fill:#EBEBEC;" d="M243.484,312.069c3.347-1.916,5.754-3.74,10.371-1.577c2.187,1.024,4.296,2.446,6.046,4.11
					c2.114,2.012,2.803,4.577,3.547,7.307c0.806,2.971,1.46,6.098,1.001,9.181c-0.27,1.821-0.935,3.563-1.77,5.196
					c-0.546,1.069-1.418,3.293-2.862,3.367c-0.657,0.035-1.005-0.405-1.165-1c-0.285,0.409-0.58,0.801-0.89,1.155
					c-0.956,1.1-2.257,1.4-3.347,0.361c-0.263-0.252-0.408-0.551-0.467-0.879c-0.381,0.372-0.781,0.685-1.187,0.885
					c-1.884,0.929-2.969-0.132-2.604-2.056c0.401-2.107,1.381-3.715,2.362-5.57c0.462-0.871,0.661-1.812,0.716-2.775
					c-0.071,0.178-0.142,0.355-0.217,0.53c-1.111,2.609-3.232,6.508-6.205,7.131c-2.833,0.594-2.405-3.183-1.76-4.66
					c0.873-2.001,2.305-3.742,3.259-5.718c0.753-1.56,1.52-3.363,1.451-5.128c-0.051-1.272-0.972-4.326-2.69-2.531
					c-0.539,0.563-0.815,1.402-0.982,2.144c-0.381,1.676,0.481,6.801-2.009,7.223c-1.269,0.216-2.192-1.23-2.629-2.214
					c-1.278-2.896-0.996-6.489-0.271-9.495C241.553,315.518,242.697,313.522,243.484,312.069z"/>
				<path style="opacity:0.7;fill:#EBEBEC;" d="M258.798,320.149c-1.6-1.003-3.298-1.865-5.127-2.35
					c-0.014-1.217-0.223-2.509-0.303-3.493c-0.117-1.36-0.446-2.654-0.956-3.889c0.388,0.135,0.787,0.288,1.211,0.486
					c2.187,1.024,4.296,2.446,6.046,4.111c2.114,2.013,2.804,4.578,3.547,7.306c0.172,0.64,0.336,1.288,0.488,1.94
					C262.248,322.585,260.397,321.148,258.798,320.149z"/>
				<path style="fill:#EBEBEC;" d="M230.122,228.826c0,0,12.976,2.921,20.395,9.988c7.42,7.067-13.946,33.176-20.512,24.214
					C223.437,254.068,227.293,228.057,230.122,228.826z"/>
				<path style="fill:#D9D9DB;" d="M236.23,264.34c0.465-1.32,0.829-2.626,1.135-3.615c1.109-3.591,2.017-7.166,2.369-10.922
					c0.583-6.202,1.038-12.553-1.432-18.332c-4.532-1.824-8.18-2.646-8.18-2.646c-2.828-0.768-6.685,25.243-0.117,34.202
					C231.49,265.055,233.734,265.276,236.23,264.34z"/>
				<path style="fill:#EBEBEC;" d="M243.9,235.299c0,0,7.387,2.348,7.221,8.476c-0.165,6.127-6.483,13.203-10.514,16.821
					c0,0,8.397-8.9,8.833-14.954C249.878,239.586,243.9,235.299,243.9,235.299z"/>
				<path style="fill:#B1B2B4;" d="M254.545,321.423c0.001-0.084,0.131-0.001,0.132,0.058c0.108,3.719-0.399,7.265-2.426,10.459
					c-0.012,0.019-0.051-0.016-0.043-0.033C253.735,328.682,254.447,324.959,254.545,321.423z"/>
				<path style="fill:#B1B2B4;" d="M253.528,339.402c3.805-4.485,5.888-10.455,5.2-16.359c-0.005-0.044,0.065,0,0.072,0.025
					c1.339,5.272-0.874,12.964-5.117,16.483C253.612,339.607,253.467,339.474,253.528,339.402z"/>
				<path style="fill:#EBEBEC;" d="M241.183,317.056c0.37-1.537,1.514-3.533,2.301-4.986c3.347-1.916,5.754-3.74,10.371-1.577
					c0.014,0.006,0.03,0.014,0.044,0.021c-2.747-0.664-6.567-1.437-7.356,1.751c-0.289,1.173-0.173,3.991,1.411,4.307
					c3.349,0.671,3.777,5.776,2.63,8.488c-0.902,2.14-1.328,3.114-2.217,6.143c-0.377,1.282,0.804,2.542,2.139,1.657
					c1.536-1.016,2.333-2.815,2.954-4.492c0.711-1.923,1.02-4.161,1.23-6.196c0.51,2.665,0.168,5.755-0.7,8.295
					c-0.411,1.204-1.69,3.983-0.602,5.168c1.35,1.468,3.232-1.199,3.718-2.195c1.272-2.597,1.525-5.218,1.734-7.958
					c0.488,2.81,0.293,5.646-0.966,8.386c-0.208,0.454-1.938,3.815-0.167,3.763c1.927-0.057,3.291-3.31,3.856-4.804
					c0.772-2.041,1.146-4.142,1.31-6.282c0.296,2.333,0.089,4.733-0.659,6.971c-0.437,1.307-1.492,2.706-1.397,4.124
					c0.035,0.507,0.35,0.716,0.728,0.762c-0.46,0.671-1.025,1.215-1.727,1.252c-0.657,0.035-1.005-0.405-1.165-1
					c-0.285,0.409-0.58,0.801-0.89,1.155c-0.956,1.1-2.257,1.4-3.347,0.361c-0.263-0.252-0.408-0.551-0.467-0.879
					c-0.381,0.372-0.781,0.685-1.187,0.885c-1.884,0.929-2.969-0.132-2.604-2.056c0.401-2.107,1.381-3.715,2.362-5.57
					c0.462-0.871,0.661-1.812,0.716-2.775c-0.071,0.178-0.142,0.355-0.217,0.53c-1.111,2.609-3.232,6.508-6.205,7.131
					c-2.833,0.594-2.405-3.183-1.76-4.66c0.873-2.001,2.305-3.742,3.259-5.718c0.753-1.56,1.52-3.363,1.451-5.128
					c-0.051-1.272-0.972-4.326-2.69-2.531c-0.539,0.563-0.815,1.402-0.982,2.144c-0.381,1.676,0.481,6.801-2.009,7.223
					c-1.269,0.216-2.192-1.23-2.629-2.214C240.176,323.654,240.458,320.061,241.183,317.056z"/>
			</g>
			<path style="fill:#B1B2B4;" d="M261.488,333.033c0.65-1.751,1.088-3.676,1.28-5.601c-0.065,1.353-0.297,2.714-0.48,3.854
				c-0.052,0.324-0.112,0.639-0.174,0.957c-0.793,2.363-2.02,4.583-3.549,6.482c-0.027,0.033-0.099-0.032-0.083-0.068
				C259.435,336.729,260.719,335.103,261.488,333.033z"/>
		</g>
		<g>
			<g>
				<g>
					<path style="fill:#EBEBEC;" d="M140.758,206.885c-1.316-1.939-2.776-3.351-4.296-4.357c-2.488,1.172-4.884,2.886-6.582,4.392
						c-3.09,2.738-5.877,6.368-6.189,10.525c9.946,19.347,29.781,34.88,29.781,34.88l15.189-19.017
						C159.595,227.435,146.577,215.456,140.758,206.885z"/>
					<path style="fill:#D9D9DB;" d="M140.758,206.885c-1.316-1.939-2.776-3.351-4.296-4.357c-2.488,1.172-4.884,2.886-6.582,4.392
						c-2.753,2.439-5.261,5.589-5.997,9.188c0.433,1.696,1.252,3.29,2.525,4.527c2.478,2.413,5.217,2.578,8.415,3.179
						c3.922,0.736,13.254,12.29,13.032,16.065c-0.166,2.804-0.119,5.326,0.21,7.798c3.245,2.953,5.406,4.649,5.406,4.649
						l15.189-19.017C159.595,227.435,146.577,215.456,140.758,206.885z"/>
					<path style="fill:#D9D9DB;" d="M136.88,223c4.462-1.166,9.059-3.723,10.422-8.109c-2.595-2.798-4.872-5.544-6.544-8.005
						c-1.316-1.939-2.776-3.351-4.296-4.357c-2.488,1.172-4.884,2.886-6.582,4.392c-2.753,2.439-5.261,5.589-5.997,9.188
						c0.392,1.533,1.119,2.969,2.191,4.147C128.929,222.799,133.574,223.864,136.88,223z"/>
					<path style="fill:#818386;" d="M151.464,219.161c0.359,0.351,0.719,0.703,1.085,1.054c-3.141,6.946-8.196,13.089-14.2,17.737
						c-0.617-0.68-1.237-1.384-1.859-2.1C142.812,231.905,148.113,225.845,151.464,219.161z"/>
					<path style="fill:#EBEBEC;" d="M174.893,258.065c0,0-13.174,1.833-22.604-2.171c-9.432-4.004,1.378-35.961,10.678-29.884
						C172.267,232.086,177.813,257.79,174.893,258.065z"/>
					<path style="fill:#EBEBEC;" d="M159.72,256.855c0,0-7.741,0.401-9.743-5.392c-2.001-5.795,1.421-14.642,3.922-19.445
						c0,0-4.729,11.287-3.007,17.108C152.614,254.945,159.72,256.855,159.72,256.855z"/>
					<g>
						<path style="fill:#D9D9DB;" d="M127.393,188.624c1.54,2.096,3.696,3.942,6.112,4.947c2.567,1.067,5.651,2.018,8.445,1.246
							c1.339-0.367,2.436-1.197,3.538-1.999c-0.14,8.929-0.531,19.463-0.531,19.463s-2.626,11.849-14.285,10.649
							c0,0-8.148-2.25-8.435-10.318c-0.197-5.481,1.66-17.166,4.462-24.993C126.93,187.981,127.169,188.318,127.393,188.624z"/>
						<path style="fill:#EBEBEC;" d="M135.681,195.846l0.101-1.439c-0.788-0.245-1.554-0.536-2.278-0.836
							c-2.366-0.983-4.48-2.778-6.012-4.82c-0.22,0.604-0.448,1.27-0.678,1.977C128.507,193.654,132.379,195.618,135.681,195.846z"
							/>
						<path style="fill:#EBEBEC;" d="M126.228,192.603c-1.587,5.284-3.148,12.22-3.315,17.172
							c-0.262,7.783,5.253,10.129,5.253,10.129c4.305,1.993,5.788,0.52,5.788,0.52l1.621-23.053
							C132.135,197.113,128.406,195.368,126.228,192.603z"/>
					</g>
					<path style="fill:#D9D9DB;" d="M152.633,173.366c-1.785-0.517-3.732,0.341-5.011,1.57c-0.485,0.467-3.824,4.215-3.641,4.601
						c-1.239-2.617-1.586-10.727-1.54-11.794c0.061-1.402,0.333-2.828,0.316-4.227c0.064-1.016-0.125-1.98-0.569-2.891
						c-1.753-1.526-3.077-1.398-3.972,0.382c-0.006,0.013-0.017,0.017-0.024,0.029c-0.341,0.831-0.602,1.749-0.807,2.648
						c-0.243,0.847-0.403,1.76-0.501,2.698c-0.057,0.368-0.108,0.707-0.155,0.996c-0.02,0.126-0.035,0.263-0.054,0.392
						c-0.444-3.022-0.213-6.109-0.927-9.117c-0.391-1.641-2.624-1.803-3.594-0.689c-1.671,1.917-2.115,4.448-2.205,6.937
						c-0.33-1.112-0.663-2.222-0.873-3.39c-0.292-1.615-1.705-3.214-3.482-2.076c-1.998,1.28-2.589,3.377-2.272,5.75
						c0.025,0.185,0.062,0.391,0.091,0.586c-0.451-0.603-1.023-1.009-1.771-1.015c-3.142-0.028-3.118,3.179-3.094,5.497
						c0.058,5.583,1.548,10.939,4.422,15.728c1.54,2.565,3.149,5.222,5.456,7.18c4.017,3.407,11.539,4.898,16.138,1.853
						c3.645-2.413,4.107-6.777,5.24-10.631c0.422-1.438,1.004-2.82,1.631-4.179c0.743-1.607,2.183-3.357,2.298-5.18
						C153.791,174.064,153.327,173.567,152.633,173.366z"/>
					<path style="opacity:0.6;fill:#D9D9DB;" d="M153.35,173.804c-3.928-0.709-6.702,4.782-8.679,7.186
						c-3.03,3.686-3.855,6.457-2.203,11.008c0.34,0.936-1.051,1.649-1.393,0.705c-0.87-2.398-2.003-5.552-0.823-8.067
						c0.923-1.966,2.284-3.623,3.654-5.285c-1.175-2.784-1.51-10.564-1.464-11.609c0.061-1.402,0.333-2.828,0.316-4.227
						c0.03-0.483,0-0.953-0.084-1.413c-0.016-0.037-0.043-0.063-0.055-0.104c-0.619-2.103-2.377-0.279-2.786,0.787
						c-0.372,0.968-1.228,1.877-1.541,2.872c-0.526,1.668-1.12,5.541-1.229,4.81c-0.142-0.951-0.269-1.901-0.366-2.851
						c-0.007,0.051-0.015,0.102-0.022,0.152c-0.42-2.848-0.247-5.754-0.823-8.597c-1.742-1.805-3.888,0.331-4.266,2.07
						c-0.327,1.505-1.04,5.647-1.3,4.805c-0.138-0.449-0.241-0.904-0.325-1.361c-0.003,0.072-0.009,0.143-0.012,0.215
						c-0.33-1.112-0.663-2.222-0.873-3.39c-0.149-0.822-0.589-1.639-1.22-2.093c-3.778,0.275-3.238,7.941-3.611,7.398
						c-0.258-0.377-0.548-0.728-0.837-1.081c0.002,0.013,0.004,0.025,0.006,0.036c-0.451-0.603-1.023-1.009-1.771-1.015
						c-0.284-0.003-0.533,0.029-0.767,0.077c-3.721,2.456,1.298,15.237,2.505,17.883c1.877,4.117,4.327,8.434,8.141,11.062
						c2.6,1.792,5.282,2.579,8.127,2.835c1.791-0.152,3.494-0.657,4.916-1.599c3.645-2.413,4.107-6.777,5.24-10.631
						c0.422-1.438,1.004-2.82,1.631-4.179c0.743-1.607,2.183-3.357,2.298-5.18C153.766,174.468,153.611,174.081,153.35,173.804z"/>
					<path style="opacity:0.6;fill:#D9D9DB;" d="M141.61,169.108c-0.28,4.039,0.042,7.85,1.122,11.694
						c0.385-0.488,0.777-0.971,1.173-1.451c-1.175-2.784-1.51-10.564-1.464-11.609c0.061-1.402,0.333-2.828,0.316-4.227
						c0.028-0.451-0.001-0.889-0.073-1.32C142.594,164.495,141.764,166.901,141.61,169.108z"/>
					<path style="opacity:0.6;fill:#EBEBEC;" d="M137.866,177.617c-1.406-1.367-3.458-0.782-5.064-0.571
						c-0.866,0.113-2.324,0.878-3.173,1.089c-1.705,0.42-3.321,1.263-4.077,2.932c-0.389,0.86,0.364,1.817,1.232,2.059
						c0.912,0.254,1.86,0.374,2.809,0.346c1.747-0.053,3.093-0.566,4.6-1.429c1.303-0.746,2.895-1.727,3.667-3.054
						C138.233,178.345,138.164,177.908,137.866,177.617z"/>
					<path style="opacity:0.6;fill:#D9D9DB;" d="M151.076,178.821c-2.115,3.421-2.101,7.135-3.27,10.847
						c-0.494,1.572-1.169,3.105-2.069,4.399c2.588-2.506,3.068-6.292,4.066-9.686c0.422-1.438,1.004-2.82,1.631-4.179
						c0.743-1.607,2.183-3.357,2.298-5.18c0.007-0.113,0.001-0.216-0.008-0.316C153.334,176.167,152.068,177.216,151.076,178.821z"
						/>
				</g>
			</g>
			<path style="fill:#C9CACC;" d="M138.896,176.146c-0.034-0.006-0.067-0.015-0.102-0.023c-0.944-2.577-1.792-5.564-2.09-8.338
				c-0.076,0.269-0.138,0.544-0.18,0.822c0.089,2.51,1.005,5.255,1.956,7.454c-1.795-0.276-3.726-0.038-5.467,0.397
				c-1.497-3.979-2.236-8.154-3.187-12.28c-0.004,0.168,0.001,0.335,0.001,0.502c0.024,0.884,0.078,1.766,0.244,2.635
				c0.139,0.729,0.293,1.452,0.422,2.18c0.546,2.384,1.269,4.722,2.241,7.033c-0.087,0.024-0.176,0.043-0.262,0.067
				c-1.271,0.353-3.362,0.816-5.077,1.604c-0.934-2.368-1.453-4.853-1.959-7.346c-0.337-1.663-0.667-3.516-1.713-4.829
				c-0.204-0.145-0.408-0.291-0.619-0.419c1.66,1.75,1.919,4.797,2.298,7.045c0.318,1.897,0.832,3.918,1.69,5.69
				c-0.544,0.27-1.023,0.583-1.425,0.935C129.512,177.114,134.444,176.087,138.896,176.146z"/>
			<path style="fill:#C9CACC;" d="M144.271,178.921c-1.881,2.099-3.74,4.17-4.674,6.884c-0.589,1.709-0.318,5.284,1.15,6.579
				c0.055,0.048,0.182-0.043,0.138-0.107c-0.008-0.011-0.015-0.021-0.023-0.032c-0.038-0.057-0.128,0.036-0.125,0.081
				c-0.134-1.909-1.086-3.708-0.86-5.849c0.313-2.962,3.037-5.18,4.562-7.5C144.527,178.846,144.338,178.848,144.271,178.921z"/>
			<path style="opacity:0.5;fill:#EBEBEC;" d="M127.847,222.771c0,0,9.192,13.831,18.726,22.184c0,0,0.583-1.782-0.845-4.159
				c-1.43-2.377-11.858-14.915-11.858-14.915L127.847,222.771z"/>
			<path style="fill:#EBEBEC;" d="M137.836,196.022c-3.324-0.547-5.553-1.626-8.019-3.94c-2.099-1.97-3.737-4.504-5.176-6.983
				c-3.113-5.365-5.945-13.098-4.394-19.334c0.022-0.09-0.107-0.043-0.126,0.013c-2.109,6.294,0.635,13.545,3.397,19.217
				c2.612,5.361,7.872,11.131,14.224,11.215C137.82,196.211,137.958,196.042,137.836,196.022z"/>
		</g>
		<path style="fill:#EBEBEC;" d="M158.58,292.879c0,0-3.199,3.656-3.465,9.928c-0.266,6.272,31.636,20.076,39.94,22.268
			c8.304,2.193,38.624-12.659,38.778-19.176c0.154-6.518-0.661-9.308-4.59-9.683C225.312,295.843,158.58,292.879,158.58,292.879z"/>
		<path style="fill:#EBEBEC;" d="M161.136,306.621c-0.296-4.591,0.137-9.082,0.447-13.608c-1.909-0.085-3.003-0.134-3.003-0.134
			s-3.199,3.656-3.465,9.928c-0.076,1.78,2.44,4.166,6.27,6.722C161.277,308.555,161.198,307.582,161.136,306.621z"/>
		<path style="fill:#EBEBEC;" d="M229.243,296.217c-0.407-0.039-1.497-0.106-3.113-0.194c0.007,0.088,0.016,0.175,0.021,0.263
			c0.15,2.638,0.222,5.322,0.028,7.96c-0.258,3.484-0.837,6.933-1.243,10.398c5.147-3.211,8.844-6.48,8.898-8.744
			C233.987,299.382,233.172,296.592,229.243,296.217z"/>
		<path style="fill:#D3D4D5;" d="M236.733,233.106c-2.373-7.803-28.322-9.564-28.322-9.564l-8.597-0.317l-8.572-0.726
			c0,0-25.971-1.392-29.271,6.065c-3.302,7.458-6.407,62.437-3.34,67.217c2.105,3.281,13.975,7.786,27.115,10.351
			c2.951,0.576,5.698,0.742,8.681,1.086c3.003,0.02,6.319,0.223,9.319,0.007c13.353-0.956,25.682-3.989,28.169-6.992
			C235.536,295.86,239.106,240.909,236.733,233.106z"/>
		<path style="fill:#EBEBEC;" d="M234.692,232.549c-2.242-7.371-26.756-9.036-26.756-9.036l-8.122-0.299l-8.098-0.686
			c0,0-24.535-1.315-27.654,5.731c-3.118,7.044-6.053,58.983-3.155,63.5c1.988,3.1,13.203,7.355,25.616,9.779
			c2.789,0.544,5.383,0.701,8.202,1.026c2.836,0.018,5.97,0.21,8.803,0.007c12.615-0.903,24.262-3.769,26.611-6.605
			C233.562,291.832,236.934,239.919,234.692,232.549z"/>
		<path style="opacity:0.5;fill:#D9D9DB;" d="M196.586,302.652c-10.339-0.313-20.757-3.317-28.773-10.086
			c-5.017-4.235-8.247-9.332-10.409-14.991c-0.14,9.277,0.191,16.596,1.226,18.207c2.105,3.281,13.975,7.786,27.115,10.351
			c2.951,0.576,5.698,0.742,8.681,1.086c3.003,0.02,6.319,0.223,9.319,0.007c13.353-0.956,25.682-3.989,28.169-6.992
			c0.953-1.152,1.904-5.813,2.743-12.192C225.6,298.647,210.334,303.069,196.586,302.652z"/>
		<path style="fill:#C9CACC;" d="M199.383,237.655c7.325,0.282,14.733-0.829,21.744-2.946c3.974-1.2,8.703-2.565,11.796-5.563
			c-7.838-4.471-24.513-5.603-24.513-5.603l-8.597-0.317l-8.572-0.726c0,0-15.528-0.832-24.097,2.239
			C175.137,233.35,187.933,237.215,199.383,237.655z"/>
		<g>
			<g>
				<path style="fill:#EBEBEC;" d="M176.285,207.703c-0.336,5.536-5.096,9.75-10.634,9.414l0,0
					c-5.535-0.336-9.751-5.096-9.414-10.631l0.426-7.033c0.337-5.537,5.098-9.751,10.633-9.415l0,0
					c5.537,0.336,9.752,5.096,9.416,10.632L176.285,207.703z"/>
				<path style="fill:#C7C8CA;" d="M175.307,207.292c-0.303,4.984-4.59,8.779-9.574,8.477l0,0c-4.986-0.303-8.78-4.59-8.478-9.574
					l0.385-6.333c0.303-4.983,4.59-8.779,9.574-8.477l0,0c4.986,0.303,8.781,4.59,8.478,9.573L175.307,207.292z"/>
				<g>
					<path style="fill:#2A416F;" d="M164.147,196.482c-0.068,1.129-1.039,1.989-2.169,1.921c-1.128-0.069-1.988-1.041-1.92-2.169
						c0.068-1.129,1.04-1.989,2.169-1.92C163.357,194.382,164.217,195.353,164.147,196.482z"/>
					<path style="fill:#FFFFFF;" d="M162.325,195.635c-0.019,0.307-0.282,0.54-0.59,0.522c-0.306-0.019-0.54-0.282-0.521-0.589
						c0.019-0.307,0.282-0.54,0.589-0.521C162.11,195.066,162.343,195.328,162.325,195.635z"/>
					<path style="fill:#FFFFFF;" d="M161.143,196.736c-0.008,0.14-0.13,0.248-0.27,0.24c-0.142-0.008-0.25-0.131-0.242-0.271
						c0.008-0.141,0.132-0.248,0.272-0.24C161.044,196.473,161.151,196.594,161.143,196.736z"/>
				</g>
				<g>
					<path style="fill:#2A416F;" d="M163.247,205.061c-0.068,1.13-1.039,1.989-2.169,1.921c-1.129-0.069-1.988-1.04-1.919-2.169
						c0.068-1.13,1.039-1.99,2.167-1.921C162.456,202.96,163.316,203.93,163.247,205.061z"/>
					<path style="fill:#FFFFFF;" d="M161.424,204.214c-0.019,0.307-0.282,0.541-0.589,0.523c-0.307-0.019-0.54-0.283-0.522-0.59
						c0.019-0.306,0.283-0.541,0.589-0.522C161.209,203.643,161.443,203.908,161.424,204.214z"/>
					<path style="fill:#FFFFFF;" d="M160.242,205.313c-0.008,0.141-0.13,0.248-0.271,0.24c-0.14-0.009-0.248-0.13-0.241-0.271
						c0.01-0.141,0.131-0.248,0.273-0.24C160.143,205.051,160.251,205.172,160.242,205.313z"/>
				</g>
				<path style="fill:#C9CACC;" d="M167.296,190.038c-1.082-0.065-2.132,0.046-3.13,0.305c-1.655,4.334-2.21,8.989-2.168,13.649
					c0.023,2.741,0.027,5.494,0.202,8.231c0.086,1.359,0.136,2.786,0.313,4.182c0.977,0.393,2.028,0.645,3.137,0.712
					c5.538,0.336,10.298-3.878,10.634-9.414l0.427-7.033C177.048,195.134,172.833,190.374,167.296,190.038z"/>
			</g>
			<g>
				<path style="fill:#EBEBEC;" d="M225.049,210.666c-0.336,5.535,3.878,10.295,9.415,10.631l0,0
					c5.536,0.336,10.297-3.879,10.633-9.414l0.427-7.033c0.336-5.536-3.88-10.296-9.415-10.632l0,0
					c-5.537-0.337-10.297,3.878-10.633,9.414L225.049,210.666z"/>
				<path style="fill:#C7C8CA;" d="M226.068,210.376c-0.302,4.985,3.493,9.271,8.478,9.574l0,0c4.984,0.302,9.272-3.494,9.574-8.477
					l0.385-6.333c0.303-4.984-3.493-9.27-8.477-9.573l0,0c-4.985-0.303-9.272,3.493-9.575,8.477L226.068,210.376z"/>
				<g>
					<path style="fill:#2A416F;" d="M238.455,200.996c-0.069,1.129,0.791,2.101,1.921,2.169c1.128,0.068,2.099-0.792,2.168-1.921
						c0.068-1.129-0.791-2.1-1.92-2.168C239.494,199.008,238.523,199.867,238.455,200.996z"/>
					<path style="fill:#FFFFFF;" d="M240.366,200.376c-0.019,0.306,0.215,0.57,0.522,0.588c0.307,0.019,0.57-0.214,0.589-0.521
						c0.019-0.307-0.215-0.57-0.521-0.588C240.649,199.836,240.385,200.069,240.366,200.376z"/>
					<path style="fill:#FFFFFF;" d="M241.406,201.611c-0.008,0.14,0.098,0.262,0.24,0.271c0.141,0.008,0.262-0.099,0.271-0.24
						c0.008-0.142-0.099-0.263-0.24-0.271C241.536,201.363,241.415,201.469,241.406,201.611z"/>
				</g>
				<g>
					<path style="fill:#2A416F;" d="M238.31,209.62c-0.068,1.13,0.791,2.101,1.921,2.17c1.129,0.068,2.1-0.792,2.168-1.921
						c0.069-1.13-0.791-2.101-1.919-2.169C239.35,207.63,238.379,208.49,238.31,209.62z"/>
					<path style="fill:#FFFFFF;" d="M240.222,209.001c-0.019,0.306,0.215,0.57,0.522,0.589c0.306,0.019,0.57-0.216,0.589-0.522
						c0.018-0.307-0.215-0.571-0.522-0.59C240.505,208.46,240.24,208.694,240.222,209.001z"/>
					<path style="fill:#FFFFFF;" d="M241.262,210.234c-0.008,0.141,0.099,0.262,0.24,0.271c0.141,0.008,0.262-0.099,0.271-0.24
						c0.009-0.141-0.1-0.262-0.24-0.271C241.392,209.986,241.271,210.094,241.262,210.234z"/>
				</g>
				<path style="fill:#C9CACC;" d="M236.109,194.218c1.082,0.065,2.111,0.304,3.069,0.681c1.118,4.502,1.105,9.19,0.501,13.811
					c-0.354,2.719-0.691,5.452-1.196,8.146c-0.251,1.339-0.473,2.75-0.818,4.114c-1.017,0.273-2.093,0.395-3.202,0.328
					c-5.537-0.336-9.751-5.096-9.415-10.631l0.427-7.034C225.813,198.096,230.573,193.881,236.109,194.218z"/>
			</g>
			<g>
				<path style="fill:#EBEBEC;" d="M208.046,162.738c-1.53-0.28-3.114-0.481-4.755-0.592c-1.641-0.088-3.239-0.081-4.791,0.012
					c-20.398,1.23-32.967,17.559-34.014,34.806c-1.189,19.573,0.583,27.715,18.004,34.391c3.776,1.447,10.15,3.06,16.728,3.175
					c6.544,0.682,12.424-0.187,16.346-1.167c18.101-4.519,20.846-12.385,22.034-31.958
					C238.645,184.158,228.146,166.429,208.046,162.738z"/>
				<path style="fill:#D9D9DB;" d="M165.439,216.107c2.016,6.92,6.845,11.338,17.051,15.249c3.776,1.447,10.15,3.06,16.728,3.175
					c6.544,0.682,12.424-0.187,16.346-1.167c11.302-2.821,16.616-6.947,19.303-14.413
					C213.307,209.766,187.905,209.56,165.439,216.107z"/>
				<path style="opacity:0.5;fill:#C9CACC;" d="M170.24,187.57c1.336,0.514,1.729-1.349,2.318-2.334
					c1.382-2.311,2.891-4.56,4.645-6.609c3.207-3.749,6.948-6.875,11.399-9.02c-0.724-1.606-1.698-3.043-2.752-4.428
					c-9.15,4.047-15.681,11.674-18.98,20.54C167.946,186.427,169.054,187.117,170.24,187.57z"/>
				<path style="opacity:0.5;fill:#C9CACC;" d="M227.842,182.255c0.829,1.716,1.605,3.451,2.324,5.209
					c0.038-0.028,0.076-0.058,0.115-0.086c1.473-1.055,2.987-2.047,4.471-3.081c-1.971-4.785-4.916-9.175-8.804-12.763
					c-1.032,1.013-2.08,2.01-3.108,3.023C224.673,176.994,226.479,179.441,227.842,182.255z"/>
				<path style="fill:#C9CACC;" d="M231.582,203.039c-0.979,16.095-15.497,28.307-32.432,27.278
					c-16.935-1.029-29.869-14.909-28.892-31.003c0.978-16.095,15.497-28.308,32.432-27.28
					C219.625,173.063,232.56,186.944,231.582,203.039z"/>
				<g>
					
						<radialGradient id="SVGID_1_" cx="104.031" cy="201.6519" r="37.4903" gradientTransform="matrix(0.9982 0.0606 -0.0606 0.9982 99.0439 -7.256)" gradientUnits="userSpaceOnUse">
						<stop  offset="0.1486" style="stop-color:#21687E"/>
						<stop  offset="0.491" style="stop-color:#023F5F"/>
						<stop  offset="0.9801" style="stop-color:#000000"/>
					</radialGradient>
					<path style="fill:url(#SVGID_1_);" d="M229.836,201.165c-0.919,15.12-14.561,26.595-30.472,25.629
						c-15.91-0.966-28.062-14.009-27.144-29.129c0.919-15.122,14.56-26.597,30.471-25.631
						C218.601,173.001,230.754,186.043,229.836,201.165z"/>
					
						<radialGradient id="SVGID_00000160170807459432350110000015998242206578151093_" cx="112.8397" cy="158.0457" r="74.9033" gradientTransform="matrix(0.9982 0.0606 -0.0606 0.9982 99.0439 -7.256)" gradientUnits="userSpaceOnUse">
						<stop  offset="0.2849" style="stop-color:#21687E"/>
						<stop  offset="0.4225" style="stop-color:#0D3B59"/>
						<stop  offset="0.5885" style="stop-color:#05294A"/>
						<stop  offset="0.7076" style="stop-color:#031B31"/>
						<stop  offset="0.8978" style="stop-color:#01070D"/>
						<stop  offset="1" style="stop-color:#000000"/>
					</radialGradient>
					<path style="fill:url(#SVGID_00000160170807459432350110000015998242206578151093_);" d="M227.465,188.579
						c1.275,3.693,1.727,7.654,0.995,11.847c-1.699,9.725-9.816,16.958-19.205,19.063c-8.564,1.919-19.096,1.135-26.524-3.936
						c-11.282-7.701-11.404-21.924-4.994-32.461c-3.175,4.103-5.183,9.096-5.516,14.574c-0.918,15.12,11.234,28.163,27.144,29.129
						c15.91,0.966,29.553-10.509,30.472-25.629C230.107,196.702,229.23,192.423,227.465,188.579z"/>
					
						<radialGradient id="SVGID_00000119117669082547600670000013194885173621805740_" cx="79.9824" cy="179.0742" r="47.0841" gradientTransform="matrix(0.9982 0.0606 -0.0606 0.9982 99.0439 -7.256)" gradientUnits="userSpaceOnUse">
						<stop  offset="0.2851" style="stop-color:#FFFFFF"/>
						<stop  offset="0.6912" style="stop-color:#6C6C6C"/>
						<stop  offset="1" style="stop-color:#000000"/>
					</radialGradient>
					<path style="fill:url(#SVGID_00000119117669082547600670000013194885173621805740_);" d="M175.844,203.355
						c0.118,1.616,0.342,3.219,0.707,4.776c0.307,1.314,0.709,2.577,1.178,3.806c1.191,1.17,2.452,2.284,3.79,3.351
						c2.145,1.712,4.379,3.369,6.781,4.697c-2.13-3.889-3.469-8.252-3.989-12.69C181.433,206.083,178.547,204.896,175.844,203.355z"
						/>
					
						<radialGradient id="SVGID_00000007403763694599156240000017169504349310760871_" cx="79.9838" cy="179.0748" r="47.0845" gradientTransform="matrix(0.9982 0.0606 -0.0606 0.9982 99.0439 -7.256)" gradientUnits="userSpaceOnUse">
						<stop  offset="0.2851" style="stop-color:#FFFFFF"/>
						<stop  offset="0.6912" style="stop-color:#6C6C6C"/>
						<stop  offset="1" style="stop-color:#000000"/>
					</radialGradient>
					<path style="fill:url(#SVGID_00000007403763694599156240000017169504349310760871_);" d="M200.596,174.273
						c-8.203,0.565-16.501,4.389-20.853,11.639c-2.443,4.072-3.754,8.853-3.971,13.666c2.53,1.214,5.23,2.187,7.806,3.167
						c0.16,0.061,0.324,0.122,0.485,0.183c0.012-2.473,0.277-4.93,0.815-7.301c1.498-6.607,5.02-12.77,10.715-16.615
						c3.119-2.107,6.714-3.742,10.457-4.621C204.237,174.203,202.411,174.148,200.596,174.273z"/>
				</g>
			</g>
		</g>
		<path style="fill:#C6C8D0;" d="M218.601,245.855l-5.576-0.338l-29.56-1.796l-5.577-0.339c-5.525-0.335-6.689,3.876-7.554,7.228
			l-1.194,19.65l-0.936,15.403l-0.035,0.568l0.113,0.008c0.463,3.32,1.325,7.197,6.547,7.514l5.577,0.339l29.56,1.796l5.577,0.338
			c5.221,0.317,6.548-3.426,7.409-6.667l0.113,0.008l0.034-0.568l0.936-15.402l1.194-19.651
			C224.772,250.511,224.126,246.191,218.601,245.855z"/>
		<path style="fill:#EBEBEC;" d="M217.62,246.598l-5.247-0.319l-27.815-1.689l-5.248-0.319c-5.2-0.315-6.295,3.647-7.109,6.801
			l-1.123,18.492l-0.88,14.493l-0.033,0.534l0.106,0.007c0.435,3.125,1.248,6.773,6.16,7.071l5.248,0.318l27.815,1.69l5.248,0.319
			c4.913,0.299,6.16-3.224,6.971-6.274l0.106,0.007l0.032-0.534l0.88-14.493l1.124-18.492
			C223.426,250.98,222.819,246.913,217.62,246.598z"/>
		<g>
			<path style="fill:#C7C8CA;" d="M217.275,277.957l-1.213-0.074l-6.436-0.391l-1.214-0.074c-1.204-0.073-1.458,0.846-1.646,1.574
				l-0.26,4.279l-0.204,3.353l-0.008,0.124l0.025,0.001c0.101,0.723,0.289,1.568,1.427,1.637l1.214,0.074l6.435,0.391l1.214,0.073
				c1.138,0.069,1.427-0.746,1.614-1.451l0.025,0.001l0.008-0.123l0.204-3.354l0.26-4.279
				C218.62,278.973,218.479,278.03,217.275,277.957z"/>
			<path style="fill:#EBEBEC;" d="M216.643,278.454l-1.05-0.064l-5.565-0.338l-1.049-0.063c-1.041-0.063-1.26,0.729-1.423,1.36
				l-0.224,3.7l-0.176,2.899l-0.007,0.108l0.021,0.002c0.087,0.624,0.25,1.355,1.233,1.414l1.05,0.064l5.565,0.338l1.05,0.064
				c0.983,0.06,1.233-0.646,1.395-1.255l0.021,0.001l0.007-0.108l0.176-2.899l0.225-3.7
				C217.805,279.331,217.684,278.517,216.643,278.454z"/>
			<path style="fill:#EBEBEC;" d="M215.822,279.106l-0.836-0.051l-4.434-0.269l-0.836-0.051c-0.829-0.05-0.979,0.174-1.088,0.352
				l-0.064,1.069l-0.051,0.84l-0.002,0.03l0.017,0.001c0.087,0.184,0.24,0.401,1.022,0.449l0.835,0.05l4.434,0.27l0.836,0.05
				c0.783,0.048,0.96-0.15,1.069-0.322l0.017,0.001l0.002-0.029l0.051-0.84l0.064-1.07
				C216.772,279.397,216.65,279.157,215.822,279.106z"/>
			<path style="fill:#EBEBEC;" d="M217.416,250.246l-2.363-0.144l-12.529-0.761l-2.363-0.144c-0.533-0.032-2.08-0.126-2.614-0.158
				l-2.363-0.144l-12.529-0.761l-2.363-0.144c-2.343-0.142-2.797,1.002-3.134,1.911l-0.326,5.375l-0.257,4.212l-0.009,0.156
				l0.047,0.003c0.226,0.914,0.628,1.984,2.841,2.118l2.364,0.144l12.529,0.761l2.364,0.144c0.531,0.032,2.082,0.126,2.613,0.158
				l2.363,0.144l12.529,0.761l2.363,0.144c2.214,0.134,2.741-0.879,3.077-1.758l0.046,0.003l0.01-0.157l0.256-4.212l0.326-5.375
				C220.071,251.579,219.759,250.388,217.416,250.246z"/>
			<path style="fill:#C7C8CA;" d="M204.233,277.164l-1.214-0.074l-6.435-0.39l-1.214-0.074c-1.204-0.073-1.458,0.845-1.646,1.574
				l-0.259,4.278l-0.204,3.354l-0.008,0.124l0.025,0.001c0.101,0.723,0.288,1.568,1.427,1.636l1.213,0.074l6.436,0.391l1.214,0.074
				c1.138,0.069,1.427-0.746,1.614-1.452l0.024,0.002l0.007-0.124l0.204-3.353l0.261-4.279
				C205.577,278.18,205.436,277.238,204.233,277.164z"/>
			<path style="fill:#EBEBEC;" d="M203.601,277.662l-1.049-0.064l-5.565-0.338l-1.049-0.064c-1.041-0.063-1.261,0.73-1.423,1.361
				l-0.225,3.7l-0.176,2.899l-0.007,0.108l0.021,0.001c0.087,0.625,0.249,1.355,1.232,1.415l1.05,0.064l5.566,0.338l1.05,0.063
				c0.983,0.06,1.232-0.645,1.395-1.255l0.021,0.002l0.007-0.108l0.175-2.9l0.226-3.699
				C204.762,278.539,204.642,277.725,203.601,277.662z"/>
			<path style="fill:#EBEBEC;" d="M202.779,278.314l-0.837-0.051l-4.433-0.269l-0.837-0.051c-0.828-0.05-0.978,0.174-1.087,0.352
				l-0.065,1.069l-0.051,0.839l-0.002,0.03l0.017,0.001c0.088,0.184,0.24,0.402,1.022,0.45l0.836,0.05l4.433,0.269l0.837,0.051
				c0.782,0.047,0.959-0.151,1.068-0.322l0.017,0.001l0.002-0.03l0.051-0.839l0.065-1.07
				C203.73,278.605,203.608,278.365,202.779,278.314z"/>
			<g>
				<path style="fill:#D9D9DB;" d="M202.502,270.066c-0.091,1.498-1.379,2.638-2.877,2.546l0,0
					c-1.498-0.091-2.638-1.378-2.547-2.876l0,0c0.091-1.499,1.379-2.639,2.877-2.548l0,0
					C201.453,267.279,202.593,268.567,202.502,270.066L202.502,270.066z"/>
				<path style="fill:#D9D9DB;" d="M210.002,270.521c-0.091,1.498-1.378,2.638-2.876,2.547l0,0
					c-1.498-0.092-2.638-1.379-2.547-2.877l0,0c0.091-1.498,1.378-2.639,2.876-2.548l0,0
					C208.953,267.734,210.093,269.023,210.002,270.521L210.002,270.521z"/>
				<path style="fill:#D9D9DB;" d="M217.502,270.977c-0.091,1.498-1.379,2.637-2.877,2.546l0,0
					c-1.498-0.091-2.638-1.378-2.547-2.876l0,0c0.091-1.498,1.379-2.639,2.877-2.548l0,0
					C216.453,268.19,217.593,269.478,217.502,270.977L217.502,270.977z"/>
			</g>
			
				<rect x="172.256" y="268.372" transform="matrix(0.0606 -0.9982 0.9982 0.0606 -103.2788 442.6356)" style="fill:#D9D9DB;" width="22.534" height="15.631"/>
			<g>
				<g>
					
						<rect x="177.382" y="266.615" transform="matrix(0.0608 -0.9982 0.9982 0.0608 -99.6431 431.4309)" style="fill:#EBEBEC;" width="4.097" height="4.098"/>
					
						<rect x="181.916" y="266.89" transform="matrix(0.0606 -0.9982 0.9982 0.0606 -95.6211 436.2796)" style="fill:#EBEBEC;" width="4.097" height="4.097"/>
					
						<rect x="186.449" y="267.166" transform="matrix(0.0606 -0.9982 0.9982 0.0606 -91.6395 441.0603)" style="fill:#EBEBEC;" width="4.097" height="4.098"/>
					
						<rect x="177.091" y="271.418" transform="matrix(0.0606 -0.9982 0.9982 0.0606 -104.6805 435.7068)" style="fill:#EBEBEC;" width="4.096" height="4.098"/>
					
						<rect x="181.625" y="271.694" transform="matrix(0.0606 -0.9982 0.9982 0.0606 -100.6944 440.4946)" style="fill:#EBEBEC;" width="4.096" height="4.097"/>
					
						<rect x="186.158" y="271.969" transform="matrix(0.0608 -0.9981 0.9981 0.0608 -96.7503 445.2119)" style="fill:#EBEBEC;" width="4.096" height="4.098"/>
				</g>
				<g>
					
						<rect x="176.793" y="276.309" transform="matrix(0.0608 -0.9981 0.9981 0.0608 -109.8766 439.9406)" style="fill:#EBEBEC;" width="4.098" height="4.098"/>
					
						<rect x="181.327" y="276.584" transform="matrix(0.0606 -0.9982 0.9982 0.0606 -105.8587 444.7842)" style="fill:#EBEBEC;" width="4.098" height="4.097"/>
					
						<rect x="185.86" y="276.859" transform="matrix(0.0606 -0.9982 0.9982 0.0606 -101.8686 449.5793)" style="fill:#EBEBEC;" width="4.098" height="4.098"/>
					
						<rect x="176.501" y="281.113" transform="matrix(0.0605 -0.9982 0.9982 0.0605 -114.9027 444.2398)" style="fill:#EBEBEC;" width="4.098" height="4.098"/>
					
						<rect x="181.035" y="281.389" transform="matrix(0.0606 -0.9982 0.9982 0.0606 -110.9247 449.0131)" style="fill:#EBEBEC;" width="4.098" height="4.097"/>
					
						<rect x="185.568" y="281.663" transform="matrix(0.0608 -0.9982 0.9982 0.0608 -106.9754 453.7364)" style="fill:#EBEBEC;" width="4.098" height="4.098"/>
				</g>
			</g>
			
				<linearGradient id="SVGID_00000070096823240998917900000011639355539780833921_" gradientUnits="userSpaceOnUse" x1="119.2633" y1="246.2625" x2="119.2633" y2="265.5123" gradientTransform="matrix(0.9982 0.0606 -0.0606 0.9982 99.0439 -7.256)">
				<stop  offset="0.1486" style="stop-color:#21687E"/>
				<stop  offset="0.491" style="stop-color:#023F5F"/>
				<stop  offset="0.9801" style="stop-color:#000000"/>
			</linearGradient>
			<path style="fill:url(#SVGID_00000070096823240998917900000011639355539780833921_);" d="M216.946,251.881l-1.795-0.109
				l-9.512-0.578l-1.796-0.109c-0.404-0.025-1.578-0.096-1.984-0.12l-1.794-0.11l-9.513-0.578l-1.795-0.109
				c-1.778-0.108-2.123,0.762-2.378,1.453l-0.248,4.08l-0.194,3.198l-0.007,0.118l0.037,0.003c0.171,0.693,0.475,1.506,2.155,1.608
				l1.795,0.109l9.513,0.578l1.794,0.109c0.404,0.025,1.581,0.097,1.984,0.12l1.795,0.109l9.513,0.578l1.794,0.11
				c1.681,0.101,2.081-0.669,2.336-1.336l0.036,0.002l0.008-0.119l0.194-3.198l0.247-4.08
				C218.963,252.894,218.725,251.989,216.946,251.881z"/>
			<path style="fill:#6B6C6F;" d="M201.456,256.189c4.087,0.161,8.232,0.118,12.255-0.705c1.401-0.287,2.931-0.597,4.329-1.14
				l0.035-0.566c-0.16-0.673-0.382-1.518-2.047-1.619l-26.394-1.604c-1.665-0.101-1.989,0.711-2.228,1.359l-0.044,0.732
				C191.011,255.804,196.907,256.009,201.456,256.189z"/>
		</g>
		<g>
			<path style="fill:#BEBFC1;" d="M186.541,386.726c-0.227-4.225-2.233-8.898-5.908-11.236c-5.468-3.481-13.099-0.082-17.284,3.872
				c-2.542,2.403-4.363,5.066-5.646,8.318c-0.585,1.483-1.038,3.019-1.489,4.552c-0.458,1.092-0.917,2.186-1.355,3.289
				c-1.12,2.832-1.843,5.813-2.59,8.761c-1.209,4.77-2.21,9.87-1.205,14.768c1.836,8.941,12.975,11.523,20.165,7.555
				c3.723-2.054,6.359-5.633,8.182-9.384c1.102-2.268,1.859-4.699,2.574-7.108c0.874-2.951,1.86-5.855,2.62-8.841
				C185.795,396.591,186.802,391.575,186.541,386.726z"/>
			<path style="fill:#EBEBEC;" d="M176.39,394.585c4.388-2.566,7.834-6.462,9.158-11.453c0.062-0.233,0.107-0.468,0.162-0.703
				c-0.936-2.798-2.635-5.384-5.077-6.938c-5.468-3.481-13.099-0.082-17.284,3.872c-2.542,2.403-4.363,5.066-5.646,8.318
				c-0.29,0.732-0.546,1.477-0.784,2.227C161.083,396.404,169.214,398.781,176.39,394.585z"/>
			<path style="fill:#EBEBEC;" d="M164.999,403.719c-4.135-0.548-8.764-0.712-12.746,0.63c-1.199,4.752-2.188,9.827-1.188,14.702
				c1.836,8.941,12.975,11.523,20.165,7.555c3.723-2.054,6.359-5.633,8.182-9.384c0.818-1.683,1.445-3.457,2.006-5.244
				C176.812,407.704,171.582,404.592,164.999,403.719z"/>
			<path style="fill:#D9D9DB;" d="M186.541,386.726c-0.227-4.225-2.233-8.898-5.908-11.236c-0.854-0.544-1.759-0.921-2.697-1.152
				c2.913,1.699,5.08,4.722,6.072,8.422c1.953,7.279-0.709,15.483-3.324,22.294c-2.971,7.736-7.726,15.077-16.177,17.413
				c-3.546,0.981-8.319,1.329-11.181-1.508c-1.43-1.418-2.148-3.215-2.643-5.101c0.047,1.07,0.167,2.135,0.383,3.191
				c1.836,8.941,12.975,11.523,20.165,7.555c3.723-2.054,6.359-5.633,8.182-9.384c1.102-2.268,1.859-4.699,2.574-7.108
				c0.874-2.951,1.86-5.855,2.62-8.841C185.795,396.591,186.802,391.575,186.541,386.726z"/>
			<path style="fill:#D9D9DB;" d="M173.035,393.019c3.34-1.15,6.571-3.152,8.224-6.392c0.642-1.26,1.047-2.578,1.298-3.927
				c-0.02-0.243-0.047-0.485-0.088-0.726c-4.528-26.553-7.322-27.099-2.617-36.054c4.704-8.955,12.686-22.256,10.585-25.644
				c-6.726-10.858-25.076-18.15-25.076-18.15s-7.104-1.681-9.006,0.603s-16.365,30.296-14.156,46.173
				c1.772,12.747,11.822,33.212,15.717,40.788C161.417,393.958,167.576,394.901,173.035,393.019z"/>
			<path style="fill:#EBEBEC;" d="M154.412,352.102c5.456-0.113,10.971-4.045,9.936-10.141c-1.358-7.99-12.488-13.326-20.134-10.684
				c-1.732,6.29-2.719,12.571-2.016,17.625c0.004,0.031,0.009,0.064,0.015,0.096C145.984,350.889,150.289,352.187,154.412,352.102z"
				/>
			<path style="fill:#D9D9DB;" d="M150.662,348.637c3.783-0.079,7.607-2.805,6.887-7.031c-0.941-5.54-8.656-9.239-13.957-7.408
				c-1.201,4.362-1.885,8.717-1.398,12.221c0.003,0.022,0.008,0.044,0.009,0.065C144.818,347.796,147.804,348.695,150.662,348.637z"
				/>
			<path style="fill:#EBEBEC;" d="M164.061,326.809c7.032,2.444,14.763,6.55,19.145,12.875c4.314-7.98,8.879-16.748,7.23-19.409
				c-6.726-10.858-25.076-18.15-25.076-18.15s-7.104-1.681-9.006,0.603c-1.109,1.334-6.492,11.419-10.348,22.744
				C151.76,323.683,158.602,324.912,164.061,326.809z"/>
			<path style="fill:#EBEBEC;" d="M160.534,366.923c4.296-0.214,8.533-1.497,12.127-3.893c1.551-1.033,3.746-2.53,5.262-4.314
				c-0.626-3.545-0.713-5.795-0.011-8.254c-5.972,2.922-13.315,3.618-19.678,3.464c-4.776-0.115-11.701-0.738-15.885-4.055
				c0.54,3.254,1.567,6.951,2.861,10.776C148.979,365.064,154.366,367.229,160.534,366.923z"/>
			<path style="fill:#FFFFFF;" d="M161.307,356.747c5.786-0.415,11.922-2.22,16.512-5.909c0.032-0.126,0.057-0.249,0.093-0.376
				c-5.972,2.922-13.315,3.618-19.678,3.464c-4.776-0.115-11.701-0.738-15.885-4.055c0.204,1.235,0.479,2.534,0.814,3.879
				C148.266,356.887,155.76,357.146,161.307,356.747z"/>
			<path style="opacity:0.5;fill:#D9D9DB;" d="M179.851,345.92c4.704-8.955,12.686-22.256,10.585-25.644
				c-6.726-10.858-25.076-18.15-25.076-18.15s-2.867-0.676-5.446-0.586c0.909,0.126,1.84,0.386,2.768,0.774
				c3.295,1.374,6.27,3.504,8.873,5.933c2.166,2.02,4.84,4.593,5.494,7.623c1.109,5.151-2.765,10.69-5.06,15.036
				c-3.099,5.869-6.228,12.569-6.892,19.258c-0.648,6.543,1.439,13.1,3.705,19.158c1.119,2.991,2.33,5.946,3.494,8.919
				c0.925,2.365,2.224,4.793,2.719,7.297c0.813,4.096-1.064,6.557-3.93,8.027c0.656-0.143,1.308-0.321,1.951-0.544
				c3.34-1.15,6.571-3.152,8.224-6.392c0.642-1.26,1.047-2.578,1.298-3.927c-0.02-0.243-0.047-0.485-0.088-0.726
				C177.941,355.421,175.147,354.874,179.851,345.92z"/>
			<path style="opacity:0.5;fill:#EBEBEC;" d="M158.655,304.12c0,0-16.826,30.51-15.136,43.518
				c1.69,13.009,15.728,40.754,15.728,40.754s-13.435-31.473-13.596-43.528c-0.161-12.055,19.875-36.997,19.875-36.997
				L158.655,304.12z"/>
			<path style="fill:#FFFFFF;" d="M174.185,401.641c-0.138-0.009-0.277-0.039-0.412-0.093c-11.011-4.366-17.085-1.512-17.145-1.483
				c-0.663,0.324-1.463,0.049-1.786-0.614c-0.324-0.663-0.049-1.463,0.614-1.786c0.288-0.142,7.207-3.4,19.303,1.4
				c0.686,0.272,1.022,1.048,0.748,1.735C175.289,401.349,174.745,401.675,174.185,401.641z"/>
			<path style="fill:#FFFFFF;" d="M173.117,407.528c-0.158-0.01-0.316-0.047-0.469-0.117c-11.3-5.104-17.903-2.191-17.969-2.161
				c-0.671,0.309-1.464,0.016-1.771-0.656c-0.309-0.669-0.014-1.464,0.656-1.77c0.313-0.144,7.786-3.446,20.185,2.152
				c0.671,0.304,0.97,1.096,0.668,1.769C174.182,407.264,173.655,407.56,173.117,407.528z"/>
		</g>
		<g>
			<path style="fill:#BEBFC1;" d="M193.876,401.836c0.391,3.056,1.019,6.057,1.53,9.092c0.418,2.479,0.875,4.984,1.695,7.368
				c1.355,3.944,3.538,7.817,6.985,10.305c6.656,4.809,18.027,3.595,20.932-5.059c1.589-4.739,1.212-9.924,0.591-14.805
				c-0.384-3.016-0.744-6.064-1.511-9.01c-0.299-1.148-0.622-2.289-0.946-3.428c-0.262-1.576-0.525-3.156-0.925-4.699
				c-0.88-3.383-2.367-6.246-4.599-8.94c-3.674-4.431-10.839-8.729-16.689-5.936c-3.929,1.877-6.485,6.272-7.222,10.438
				C192.868,391.944,193.26,397.045,193.876,401.836z"/>
			<path style="fill:#EBEBEC;" d="M202.839,396.191c-4.044-3.078-6.995-7.363-7.704-12.477c-0.034-0.24-0.049-0.477-0.076-0.717
				c1.267-2.666,3.267-5.026,5.879-6.273c5.85-2.793,13.014,1.504,16.689,5.936c2.232,2.694,3.719,5.558,4.599,8.94
				c0.196,0.762,0.361,1.532,0.509,2.306C217.814,399.85,209.453,401.226,202.839,396.191z"/>
			<path style="fill:#EBEBEC;" d="M213.04,406.637c4.171-0.044,8.787,0.355,12.576,2.169c0.618,4.861,0.984,10.019-0.599,14.737
				c-2.904,8.653-14.275,9.868-20.932,5.059c-3.447-2.489-5.63-6.361-6.985-10.305c-0.608-1.77-1.017-3.605-1.358-5.449
				C200.832,409.163,206.4,406.708,213.04,406.637z"/>
			<path style="fill:#D9D9DB;" d="M193.715,387.162c0.737-4.166,3.293-8.561,7.222-10.438c0.913-0.437,1.859-0.701,2.818-0.816
				c-3.097,1.334-5.614,4.072-7.048,7.625c-2.821,6.989-1.171,15.455,0.602,22.533c2.012,8.039,5.844,15.901,13.951,19.244
				c3.402,1.403,8.096,2.326,11.281-0.143c1.591-1.235,2.522-2.932,3.242-4.744c-0.177,1.056-0.423,2.099-0.766,3.121
				c-2.904,8.653-14.275,9.868-20.932,5.059c-3.447-2.489-5.63-6.361-6.985-10.305c-0.82-2.384-1.277-4.889-1.695-7.368
				c-0.511-3.035-1.139-6.036-1.53-9.092C193.26,397.045,192.868,391.944,193.715,387.162z"/>
			<path style="fill:#D9D9DB;" d="M206.359,395.043c-3.177-1.546-6.142-3.923-7.39-7.34c-0.486-1.328-0.727-2.686-0.813-4.056
				c0.049-0.239,0.105-0.476,0.174-0.71c7.71-25.809,10.547-26.015,6.961-35.471c-3.585-9.459-9.897-23.629-7.402-26.738
				c7.99-9.963,27.089-14.981,27.089-14.981s7.255-0.81,8.866,1.688c1.611,2.499,12.576,32.053,8.463,47.548
				c-3.302,12.439-15.757,31.536-20.54,38.586C217.778,397.382,211.551,397.571,206.359,395.043z"/>
			<path style="fill:#EBEBEC;" d="M229.798,356.681c-5.402-0.772-10.402-5.343-8.635-11.268c2.315-7.768,14.008-11.718,21.278-8.169
				c0.958,6.453,1.178,12.808-0.132,17.74c-0.009,0.03-0.018,0.063-0.027,0.093C238.311,356.498,233.88,357.265,229.798,356.681z"/>
			<path style="fill:#D9D9DB;" d="M233.939,353.695c-3.745-0.535-7.211-3.705-5.988-7.813c1.606-5.385,9.712-8.123,14.755-5.664
				c0.663,4.476,0.816,8.881-0.093,12.299c-0.005,0.022-0.012,0.043-0.018,0.064C239.842,353.568,236.77,354.099,233.939,353.695z"
				/>
			<path style="fill:#EBEBEC;" d="M223.281,330.406c-7.275,1.574-15.447,4.715-20.562,10.463c-3.317-8.443-6.786-17.7-4.827-20.141
				c7.99-9.963,27.089-14.981,27.089-14.981s7.255-0.81,8.866,1.688c0.939,1.459,5.061,12.121,7.516,23.829
				C235.871,328.792,228.928,329.185,223.281,330.406z"/>
			<path style="fill:#EBEBEC;" d="M221.927,370.652c-4.238-0.731-8.29-2.518-11.567-5.331c-1.413-1.214-3.412-2.965-4.699-4.92
				c1.05-3.442,1.409-5.666,1.009-8.192c5.576,3.624,12.78,5.202,19.116,5.821c4.753,0.463,11.704,0.683,16.259-2.102
				c-0.931,3.164-2.397,6.71-4.144,10.35C233.62,370.206,228.012,371.703,221.927,370.652z"/>
			<path style="fill:#FFFFFF;" d="M222.392,360.457c-5.694-1.112-11.566-3.646-15.674-7.864c-0.017-0.129-0.026-0.254-0.048-0.385
				c5.576,3.624,12.78,5.202,19.116,5.821c4.753,0.463,11.704,0.683,16.259-2.102c-0.354,1.2-0.784,2.456-1.278,3.751
				C235.319,362.175,227.848,361.525,222.392,360.457z"/>
			<path style="opacity:0.5;fill:#D9D9DB;" d="M205.293,347.466c-3.585-9.459-9.897-23.629-7.402-26.738
				c7.99-9.963,27.089-14.981,27.089-14.981s2.927-0.326,5.476,0.076c-0.917,0.016-1.873,0.161-2.84,0.434
				c-3.439,0.964-6.649,2.719-9.527,4.815c-2.395,1.743-5.361,3.974-6.377,6.902c-1.724,4.98,1.451,10.946,3.203,15.538
				c2.366,6.201,4.661,13.229,4.51,19.95c-0.147,6.573-3.012,12.829-5.996,18.568c-1.473,2.833-3.032,5.62-4.546,8.432
				c-1.205,2.235-2.788,4.488-3.585,6.913c-1.3,3.968,0.265,6.638,2.933,8.444c-0.635-0.221-1.261-0.477-1.872-0.776
				c-3.177-1.546-6.142-3.923-7.39-7.34c-0.486-1.328-0.727-2.686-0.813-4.056c0.049-0.239,0.105-0.476,0.174-0.71
				C206.041,357.128,208.878,356.922,205.293,347.466z"/>
			<path style="opacity:0.5;fill:#EBEBEC;" d="M231.393,308.539c0,0,13.01,32.321,9.758,45.03
				c-3.251,12.708-20.546,38.55-20.546,38.55s17.146-29.615,18.765-41.561c1.62-11.946-15.251-39.131-15.251-39.131L231.393,308.539
				z"/>
			<path style="fill:#FFFFFF;" d="M204.173,403.462c0.138,0.009,0.279-0.005,0.421-0.042c11.458-3.002,17.143,0.567,17.2,0.603
				c0.618,0.402,1.445,0.226,1.848-0.393c0.402-0.619,0.225-1.445-0.393-1.847c-0.27-0.176-6.742-4.247-19.332-0.947
				c-0.713,0.186-1.141,0.917-0.954,1.631C203.114,403.039,203.614,403.428,204.173,403.462z"/>
			<path style="fill:#FFFFFF;" d="M204.521,409.436c0.158,0.009,0.319-0.009,0.48-0.06c11.834-3.697,18.037-0.007,18.098,0.031
				c0.628,0.387,1.451,0.192,1.838-0.437c0.387-0.628,0.192-1.452-0.438-1.838c-0.292-0.181-7.311-4.363-20.296-0.307
				c-0.704,0.221-1.096,0.97-0.876,1.674C203.497,409.044,203.984,409.403,204.521,409.436z"/>
		</g>
		<path style="fill:#EBEBEC;" d="M164.686,293.289c0,0-1.214-34.339,1.858-46.735c0,0,1.344-6.477,5.167-7.448
			c3.82-0.973,22.407,2.696,22.407,2.696l-19.114-0.441c0,0-5.025,0.023-6.46,7.639
			C166.984,257.274,167.707,256.681,164.686,293.289z"/>
		<path style="fill:#EBEBEC;" d="M225.449,296.98c0,0,5.363-33.941,3.813-46.617c0,0-0.549-6.592-4.226-8.02
			c-3.677-1.428-22.57-0.035-22.57-0.035l19.026,1.876c0,0,4.986,0.631,5.489,8.364C227.527,260.952,226.881,260.276,225.449,296.98
			z"/>
	</g>
</g>
</svg>
